<!--
  AUTO-GENERATED — DO NOT EDIT DIRECTLY

  Generated by: mockspace (mock)
  Generated at: 2026-04-20T06:03:23Z
  Source: mock/
  To regenerate: cargo mock
-->

<?xml version="1.0" encoding="UTF-8" standalone="no"?>
<!DOCTYPE svg PUBLIC "-//W3C//DTD SVG 1.1//EN"
 "http://www.w3.org/Graphics/SVG/1.1/DTD/svg11.dtd">
<!-- Generated by graphviz version 14.1.5 (20260411.2331)
 -->
<!-- Title: arvo Pages: 1 -->
<svg width="423pt" height="412pt"
 viewBox="0.00 0.00 423.00 412.00" xmlns="http://www.w3.org/2000/svg" xmlns:xlink="http://www.w3.org/1999/xlink">
<g id="graph0" class="graph" transform="scale(1 1) rotate(0) translate(57.6 354.1)">
<title>arvo</title>
<polygon fill="#fafafa" stroke="none" points="-57.6,57.6 -57.6,-354.1 364.98,-354.1 364.98,57.6 -57.6,57.6"/>
<text xml:space="preserve" text-anchor="start" x="10" y="-274.4" font-family="Helvetica,sans-Serif" font-weight="bold" font-size="18.00" fill="#37474f">arvo</text>
<text xml:space="preserve" text-anchor="start" x="10" y="-260.25" font-family="Helvetica,sans-Serif" font-size="9.00" fill="#999999">crate architecture</text>
<!-- arvo_bitmask -->
<g id="node1" class="node">
<title>arvo_bitmask</title>
<path fill="#f0f0f0" stroke="none" d="M133.79,-109.25C133.79,-109.25 168.21,-109.25 168.21,-109.25 173.79,-109.25 179.38,-114.83 179.38,-120.42 179.38,-120.42 179.38,-131.58 179.38,-131.58 179.38,-137.17 173.79,-142.75 168.21,-142.75 168.21,-142.75 133.79,-142.75 133.79,-142.75 128.21,-142.75 122.62,-137.17 122.62,-131.58 122.62,-131.58 122.62,-120.42 122.62,-120.42 122.62,-114.83 128.21,-109.25 133.79,-109.25"/>
<polygon fill="#666666" stroke="none" points="123.62,-124.5 123.62,-141.75 178.38,-141.75 178.38,-124.5 123.62,-124.5"/>
<text xml:space="preserve" text-anchor="start" x="126.62" y="-130.25" font-family="Helvetica,sans-Serif" font-weight="bold" font-size="10.00" fill="white"> &#160;bitmask &#160;</text>
<text xml:space="preserve" text-anchor="start" x="139" y="-115.85" font-family="Helvetica,sans-Serif" font-style="italic" font-size="7.00" fill="#999999">(empty)</text>
<path fill="none" stroke="#666666" stroke-width="2" d="M133.79,-109.25C133.79,-109.25 168.21,-109.25 168.21,-109.25 173.79,-109.25 179.38,-114.83 179.38,-120.42 179.38,-120.42 179.38,-131.58 179.38,-131.58 179.38,-137.17 173.79,-142.75 168.21,-142.75 168.21,-142.75 133.79,-142.75 133.79,-142.75 128.21,-142.75 122.62,-137.17 122.62,-131.58 122.62,-131.58 122.62,-120.42 122.62,-120.42 122.62,-114.83 128.21,-109.25 133.79,-109.25"/>
</g>
<!-- arvo_comb -->
<g id="node3" class="node">
<title>arvo_comb</title>
<path fill="#f0f0f0" stroke="none" d="M15.04,-217.25C15.04,-217.25 38.96,-217.25 38.96,-217.25 44.54,-217.25 50.12,-222.83 50.12,-228.42 50.12,-228.42 50.12,-239.58 50.12,-239.58 50.12,-245.17 44.54,-250.75 38.96,-250.75 38.96,-250.75 15.04,-250.75 15.04,-250.75 9.46,-250.75 3.88,-245.17 3.88,-239.58 3.88,-239.58 3.88,-228.42 3.88,-228.42 3.88,-222.83 9.46,-217.25 15.04,-217.25"/>
<polygon fill="#666666" stroke="none" points="4.88,-232.5 4.88,-249.75 49.12,-249.75 49.12,-232.5 4.88,-232.5"/>
<text xml:space="preserve" text-anchor="start" x="7.88" y="-238.25" font-family="Helvetica,sans-Serif" font-weight="bold" font-size="10.00" fill="white"> &#160;comb &#160;</text>
<text xml:space="preserve" text-anchor="start" x="15" y="-223.85" font-family="Helvetica,sans-Serif" font-style="italic" font-size="7.00" fill="#999999">(empty)</text>
<path fill="none" stroke="#666666" stroke-width="2" d="M15.04,-217.25C15.04,-217.25 38.96,-217.25 38.96,-217.25 44.54,-217.25 50.12,-222.83 50.12,-228.42 50.12,-228.42 50.12,-239.58 50.12,-239.58 50.12,-245.17 44.54,-250.75 38.96,-250.75 38.96,-250.75 15.04,-250.75 15.04,-250.75 9.46,-250.75 3.88,-245.17 3.88,-239.58 3.88,-239.58 3.88,-228.42 3.88,-228.42 3.88,-222.83 9.46,-217.25 15.04,-217.25"/>
</g>
<!-- arvo_bitmask&#45;&gt;arvo_comb -->
<g id="edge2" class="edge">
<title>arvo_bitmask&#45;&gt;arvo_comb</title>
<path fill="none" stroke="#bbbbbb" stroke-width="0.8" d="M131.35,-143.8C109.58,-162.4 74.48,-192.42 51.07,-212.42"/>
<polygon fill="#bbbbbb" stroke="#bbbbbb" stroke-width="0.8" points="50.14,-210.92 47.48,-215.5 52.41,-213.58 50.14,-210.92"/>
</g>
<!-- arvo_graph -->
<g id="node4" class="node">
<title>arvo_graph</title>
<path fill="#f0f0f0" stroke="none" d="M97.67,-217.25C97.67,-217.25 122.33,-217.25 122.33,-217.25 127.92,-217.25 133.5,-222.83 133.5,-228.42 133.5,-228.42 133.5,-239.58 133.5,-239.58 133.5,-245.17 127.92,-250.75 122.33,-250.75 122.33,-250.75 97.67,-250.75 97.67,-250.75 92.08,-250.75 86.5,-245.17 86.5,-239.58 86.5,-239.58 86.5,-228.42 86.5,-228.42 86.5,-222.83 92.08,-217.25 97.67,-217.25"/>
<polygon fill="#666666" stroke="none" points="87.5,-232.5 87.5,-249.75 132.5,-249.75 132.5,-232.5 87.5,-232.5"/>
<text xml:space="preserve" text-anchor="start" x="90.5" y="-238.25" font-family="Helvetica,sans-Serif" font-weight="bold" font-size="10.00" fill="white"> &#160;graph &#160;</text>
<text xml:space="preserve" text-anchor="start" x="98" y="-223.85" font-family="Helvetica,sans-Serif" font-style="italic" font-size="7.00" fill="#999999">(empty)</text>
<path fill="none" stroke="#666666" stroke-width="2" d="M97.67,-217.25C97.67,-217.25 122.33,-217.25 122.33,-217.25 127.92,-217.25 133.5,-222.83 133.5,-228.42 133.5,-228.42 133.5,-239.58 133.5,-239.58 133.5,-245.17 127.92,-250.75 122.33,-250.75 122.33,-250.75 97.67,-250.75 97.67,-250.75 92.08,-250.75 86.5,-245.17 86.5,-239.58 86.5,-239.58 86.5,-228.42 86.5,-228.42 86.5,-222.83 92.08,-217.25 97.67,-217.25"/>
</g>
<!-- arvo_bitmask&#45;&gt;arvo_graph -->
<g id="edge3" class="edge">
<title>arvo_bitmask&#45;&gt;arvo_graph</title>
<path fill="none" stroke="#bbbbbb" stroke-width="0.8" d="M144.59,-143.56C137.62,-161.58 126.44,-190.49 118.69,-210.54"/>
<polygon fill="#bbbbbb" stroke="#bbbbbb" stroke-width="0.8" points="117.11,-209.78 116.93,-215.07 120.37,-211.04 117.11,-209.78"/>
</g>
<!-- arvo_sparse -->
<g id="node5" class="node">
<title>arvo_sparse</title>
<path fill="#f0f0f0" stroke="none" d="M178.79,-217.25C178.79,-217.25 207.21,-217.25 207.21,-217.25 212.79,-217.25 218.38,-222.83 218.38,-228.42 218.38,-228.42 218.38,-239.58 218.38,-239.58 218.38,-245.17 212.79,-250.75 207.21,-250.75 207.21,-250.75 178.79,-250.75 178.79,-250.75 173.21,-250.75 167.62,-245.17 167.62,-239.58 167.62,-239.58 167.62,-228.42 167.62,-228.42 167.62,-222.83 173.21,-217.25 178.79,-217.25"/>
<polygon fill="#666666" stroke="none" points="168.62,-232.5 168.62,-249.75 217.38,-249.75 217.38,-232.5 168.62,-232.5"/>
<text xml:space="preserve" text-anchor="start" x="171.62" y="-238.25" font-family="Helvetica,sans-Serif" font-weight="bold" font-size="10.00" fill="white"> &#160;sparse &#160;</text>
<text xml:space="preserve" text-anchor="start" x="181" y="-223.85" font-family="Helvetica,sans-Serif" font-style="italic" font-size="7.00" fill="#999999">(empty)</text>
<path fill="none" stroke="#666666" stroke-width="2" d="M178.79,-217.25C178.79,-217.25 207.21,-217.25 207.21,-217.25 212.79,-217.25 218.38,-222.83 218.38,-228.42 218.38,-228.42 218.38,-239.58 218.38,-239.58 218.38,-245.17 212.79,-250.75 207.21,-250.75 207.21,-250.75 178.79,-250.75 178.79,-250.75 173.21,-250.75 167.62,-245.17 167.62,-239.58 167.62,-239.58 167.62,-228.42 167.62,-228.42 167.62,-222.83 173.21,-217.25 178.79,-217.25"/>
</g>
<!-- arvo_bitmask&#45;&gt;arvo_sparse -->
<g id="edge4" class="edge">
<title>arvo_bitmask&#45;&gt;arvo_sparse</title>
<path fill="none" stroke="#bbbbbb" stroke-width="0.8" d="M157.56,-143.56C164.7,-161.58 176.16,-190.49 184.1,-210.54"/>
<polygon fill="#bbbbbb" stroke="#bbbbbb" stroke-width="0.8" points="182.43,-211.07 185.9,-215.08 185.68,-209.79 182.43,-211.07"/>
</g>
<!-- arvo_spectral -->
<g id="node6" class="node">
<title>arvo_spectral</title>
<path fill="#f0f0f0" stroke="none" d="M260.79,-217.25C260.79,-217.25 295.21,-217.25 295.21,-217.25 300.79,-217.25 306.38,-222.83 306.38,-228.42 306.38,-228.42 306.38,-239.58 306.38,-239.58 306.38,-245.17 300.79,-250.75 295.21,-250.75 295.21,-250.75 260.79,-250.75 260.79,-250.75 255.21,-250.75 249.62,-245.17 249.62,-239.58 249.62,-239.58 249.62,-228.42 249.62,-228.42 249.62,-222.83 255.21,-217.25 260.79,-217.25"/>
<polygon fill="#666666" stroke="none" points="250.62,-232.5 250.62,-249.75 305.38,-249.75 305.38,-232.5 250.62,-232.5"/>
<text xml:space="preserve" text-anchor="start" x="253.62" y="-238.25" font-family="Helvetica,sans-Serif" font-weight="bold" font-size="10.00" fill="white"> &#160;spectral &#160;</text>
<text xml:space="preserve" text-anchor="start" x="266" y="-223.85" font-family="Helvetica,sans-Serif" font-style="italic" font-size="7.00" fill="#999999">(empty)</text>
<path fill="none" stroke="#666666" stroke-width="2" d="M260.79,-217.25C260.79,-217.25 295.21,-217.25 295.21,-217.25 300.79,-217.25 306.38,-222.83 306.38,-228.42 306.38,-228.42 306.38,-239.58 306.38,-239.58 306.38,-245.17 300.79,-250.75 295.21,-250.75 295.21,-250.75 260.79,-250.75 260.79,-250.75 255.21,-250.75 249.62,-245.17 249.62,-239.58 249.62,-239.58 249.62,-228.42 249.62,-228.42 249.62,-222.83 255.21,-217.25 260.79,-217.25"/>
</g>
<!-- arvo_bitmask&#45;&gt;arvo_spectral -->
<g id="edge5" class="edge">
<title>arvo_bitmask&#45;&gt;arvo_spectral</title>
<path fill="none" stroke="#bbbbbb" stroke-width="0.8" d="M171.12,-143.8C193.42,-162.4 229.38,-192.42 253.34,-212.42"/>
<polygon fill="#bbbbbb" stroke="#bbbbbb" stroke-width="0.8" points="252.08,-213.65 257.04,-215.51 254.32,-210.96 252.08,-213.65"/>
</g>
<!-- arvo_bits -->
<g id="node2" class="node">
<title>arvo_bits</title>
<path fill="#f0f0f0" stroke="none" d="M143.54,-1.25C143.54,-1.25 158.46,-1.25 158.46,-1.25 164.04,-1.25 169.62,-6.83 169.62,-12.42 169.62,-12.42 169.62,-23.58 169.62,-23.58 169.62,-29.17 164.04,-34.75 158.46,-34.75 158.46,-34.75 143.54,-34.75 143.54,-34.75 137.96,-34.75 132.38,-29.17 132.38,-23.58 132.38,-23.58 132.38,-12.42 132.38,-12.42 132.38,-6.83 137.96,-1.25 143.54,-1.25"/>
<polygon fill="#666666" stroke="none" points="133.38,-16.5 133.38,-33.75 168.62,-33.75 168.62,-16.5 133.38,-16.5"/>
<text xml:space="preserve" text-anchor="start" x="136.38" y="-22.25" font-family="Helvetica,sans-Serif" font-weight="bold" font-size="10.00" fill="white"> &#160;bits &#160;</text>
<text xml:space="preserve" text-anchor="start" x="139" y="-7.85" font-family="Helvetica,sans-Serif" font-style="italic" font-size="7.00" fill="#999999">(empty)</text>
<path fill="none" stroke="#666666" stroke-width="2" d="M143.54,-1.25C143.54,-1.25 158.46,-1.25 158.46,-1.25 164.04,-1.25 169.62,-6.83 169.62,-12.42 169.62,-12.42 169.62,-23.58 169.62,-23.58 169.62,-29.17 164.04,-34.75 158.46,-34.75 158.46,-34.75 143.54,-34.75 143.54,-34.75 137.96,-34.75 132.38,-29.17 132.38,-23.58 132.38,-23.58 132.38,-12.42 132.38,-12.42 132.38,-6.83 137.96,-1.25 143.54,-1.25"/>
</g>
<!-- arvo_bits&#45;&gt;arvo_bitmask -->
<g id="edge1" class="edge">
<title>arvo_bits&#45;&gt;arvo_bitmask</title>
<path fill="none" stroke="#bbbbbb" stroke-width="0.8" d="M151,-35.56C151,-53.43 151,-81.99 151,-102.03"/>
<polygon fill="#bbbbbb" stroke="#bbbbbb" stroke-width="0.8" points="149.25,-101.99 151,-106.99 152.75,-101.99 149.25,-101.99"/>
</g>
</g>
</svg>
