<!--
  AUTO-GENERATED — DO NOT EDIT DIRECTLY

  Generated by: mockspace (mock)
  Generated at: 2026-04-19T18:30:55Z
  Source: mock/
  To regenerate: cargo mock
-->

<?xml version="1.0" encoding="UTF-8" standalone="no"?>
<!DOCTYPE svg PUBLIC "-//W3C//DTD SVG 1.1//EN"
 "http://www.w3.org/Graphics/SVG/1.1/DTD/svg11.dtd">
<!-- Generated by graphviz version 14.1.5 (20260411.2331)
 -->
<!-- Title: arvo Pages: 1 -->
<svg width="338pt" height="520pt"
 viewBox="0.00 0.00 338.00 520.00" xmlns="http://www.w3.org/2000/svg" xmlns:xlink="http://www.w3.org/1999/xlink">
<g id="graph0" class="graph" transform="scale(1 1) rotate(0) translate(57.6 462.1)">
<title>arvo</title>
<polygon fill="#fafafa" stroke="none" points="-57.6,57.6 -57.6,-462.1 279.98,-462.1 279.98,57.6 -57.6,57.6"/>
<text xml:space="preserve" text-anchor="start" x="10" y="-382.4" font-family="Helvetica,sans-Serif" font-weight="bold" font-size="18.00" fill="#37474f">arvo</text>
<text xml:space="preserve" text-anchor="start" x="10" y="-368.25" font-family="Helvetica,sans-Serif" font-size="9.00" fill="#999999">crate architecture</text>
<!-- arvo_bitmask -->
<g id="node1" class="node">
<title>arvo_bitmask</title>
<path fill="#f0f0f0" stroke="none" d="M92.79,-109.25C92.79,-109.25 127.21,-109.25 127.21,-109.25 132.79,-109.25 138.38,-114.83 138.38,-120.42 138.38,-120.42 138.38,-131.58 138.38,-131.58 138.38,-137.17 132.79,-142.75 127.21,-142.75 127.21,-142.75 92.79,-142.75 92.79,-142.75 87.21,-142.75 81.62,-137.17 81.62,-131.58 81.62,-131.58 81.62,-120.42 81.62,-120.42 81.62,-114.83 87.21,-109.25 92.79,-109.25"/>
<polygon fill="#666666" stroke="none" points="82.62,-124.5 82.62,-141.75 137.38,-141.75 137.38,-124.5 82.62,-124.5"/>
<text xml:space="preserve" text-anchor="start" x="85.62" y="-130.25" font-family="Helvetica,sans-Serif" font-weight="bold" font-size="10.00" fill="white"> &#160;bitmask &#160;</text>
<text xml:space="preserve" text-anchor="start" x="98" y="-115.85" font-family="Helvetica,sans-Serif" font-style="italic" font-size="7.00" fill="#999999">(empty)</text>
<path fill="none" stroke="#666666" stroke-width="2" d="M92.79,-109.25C92.79,-109.25 127.21,-109.25 127.21,-109.25 132.79,-109.25 138.38,-114.83 138.38,-120.42 138.38,-120.42 138.38,-131.58 138.38,-131.58 138.38,-137.17 132.79,-142.75 127.21,-142.75 127.21,-142.75 92.79,-142.75 92.79,-142.75 87.21,-142.75 81.62,-137.17 81.62,-131.58 81.62,-131.58 81.62,-120.42 81.62,-120.42 81.62,-114.83 87.21,-109.25 92.79,-109.25"/>
</g>
<!-- arvo_comb -->
<g id="node3" class="node">
<title>arvo_comb</title>
<path fill="#f0f0f0" stroke="none" d="M15.04,-217.25C15.04,-217.25 38.96,-217.25 38.96,-217.25 44.54,-217.25 50.12,-222.83 50.12,-228.42 50.12,-228.42 50.12,-239.58 50.12,-239.58 50.12,-245.17 44.54,-250.75 38.96,-250.75 38.96,-250.75 15.04,-250.75 15.04,-250.75 9.46,-250.75 3.88,-245.17 3.88,-239.58 3.88,-239.58 3.88,-228.42 3.88,-228.42 3.88,-222.83 9.46,-217.25 15.04,-217.25"/>
<polygon fill="#666666" stroke="none" points="4.88,-232.5 4.88,-249.75 49.12,-249.75 49.12,-232.5 4.88,-232.5"/>
<text xml:space="preserve" text-anchor="start" x="7.88" y="-238.25" font-family="Helvetica,sans-Serif" font-weight="bold" font-size="10.00" fill="white"> &#160;comb &#160;</text>
<text xml:space="preserve" text-anchor="start" x="15" y="-223.85" font-family="Helvetica,sans-Serif" font-style="italic" font-size="7.00" fill="#999999">(empty)</text>
<path fill="none" stroke="#666666" stroke-width="2" d="M15.04,-217.25C15.04,-217.25 38.96,-217.25 38.96,-217.25 44.54,-217.25 50.12,-222.83 50.12,-228.42 50.12,-228.42 50.12,-239.58 50.12,-239.58 50.12,-245.17 44.54,-250.75 38.96,-250.75 38.96,-250.75 15.04,-250.75 15.04,-250.75 9.46,-250.75 3.88,-245.17 3.88,-239.58 3.88,-239.58 3.88,-228.42 3.88,-228.42 3.88,-222.83 9.46,-217.25 15.04,-217.25"/>
</g>
<!-- arvo_bitmask&#45;&gt;arvo_comb -->
<g id="edge2" class="edge">
<title>arvo_bitmask&#45;&gt;arvo_comb</title>
<path fill="none" stroke="#bbbbbb" stroke-width="0.8" d="M97.03,-143.56C82.68,-161.89 59.51,-191.49 43.78,-211.57"/>
<polygon fill="#bbbbbb" stroke="#bbbbbb" stroke-width="0.8" points="42.6,-210.23 40.9,-215.25 45.36,-212.39 42.6,-210.23"/>
</g>
<!-- arvo_graph -->
<g id="node4" class="node">
<title>arvo_graph</title>
<path fill="#f0f0f0" stroke="none" d="M97.67,-217.25C97.67,-217.25 122.33,-217.25 122.33,-217.25 127.92,-217.25 133.5,-222.83 133.5,-228.42 133.5,-228.42 133.5,-239.58 133.5,-239.58 133.5,-245.17 127.92,-250.75 122.33,-250.75 122.33,-250.75 97.67,-250.75 97.67,-250.75 92.08,-250.75 86.5,-245.17 86.5,-239.58 86.5,-239.58 86.5,-228.42 86.5,-228.42 86.5,-222.83 92.08,-217.25 97.67,-217.25"/>
<polygon fill="#666666" stroke="none" points="87.5,-232.5 87.5,-249.75 132.5,-249.75 132.5,-232.5 87.5,-232.5"/>
<text xml:space="preserve" text-anchor="start" x="90.5" y="-238.25" font-family="Helvetica,sans-Serif" font-weight="bold" font-size="10.00" fill="white"> &#160;graph &#160;</text>
<text xml:space="preserve" text-anchor="start" x="98" y="-223.85" font-family="Helvetica,sans-Serif" font-style="italic" font-size="7.00" fill="#999999">(empty)</text>
<path fill="none" stroke="#666666" stroke-width="2" d="M97.67,-217.25C97.67,-217.25 122.33,-217.25 122.33,-217.25 127.92,-217.25 133.5,-222.83 133.5,-228.42 133.5,-228.42 133.5,-239.58 133.5,-239.58 133.5,-245.17 127.92,-250.75 122.33,-250.75 122.33,-250.75 97.67,-250.75 97.67,-250.75 92.08,-250.75 86.5,-245.17 86.5,-239.58 86.5,-239.58 86.5,-228.42 86.5,-228.42 86.5,-222.83 92.08,-217.25 97.67,-217.25"/>
</g>
<!-- arvo_bitmask&#45;&gt;arvo_graph -->
<g id="edge3" class="edge">
<title>arvo_bitmask&#45;&gt;arvo_graph</title>
<path fill="none" stroke="#bbbbbb" stroke-width="0.8" d="M110,-143.56C110,-161.43 110,-189.99 110,-210.03"/>
<polygon fill="#bbbbbb" stroke="#bbbbbb" stroke-width="0.8" points="108.25,-209.99 110,-214.99 111.75,-209.99 108.25,-209.99"/>
</g>
<!-- arvo_sparse -->
<g id="node5" class="node">
<title>arvo_sparse</title>
<path fill="#f0f0f0" stroke="none" d="M178.79,-217.25C178.79,-217.25 207.21,-217.25 207.21,-217.25 212.79,-217.25 218.38,-222.83 218.38,-228.42 218.38,-228.42 218.38,-239.58 218.38,-239.58 218.38,-245.17 212.79,-250.75 207.21,-250.75 207.21,-250.75 178.79,-250.75 178.79,-250.75 173.21,-250.75 167.62,-245.17 167.62,-239.58 167.62,-239.58 167.62,-228.42 167.62,-228.42 167.62,-222.83 173.21,-217.25 178.79,-217.25"/>
<polygon fill="#666666" stroke="none" points="168.62,-232.5 168.62,-249.75 217.38,-249.75 217.38,-232.5 168.62,-232.5"/>
<text xml:space="preserve" text-anchor="start" x="171.62" y="-238.25" font-family="Helvetica,sans-Serif" font-weight="bold" font-size="10.00" fill="white"> &#160;sparse &#160;</text>
<text xml:space="preserve" text-anchor="start" x="181" y="-223.85" font-family="Helvetica,sans-Serif" font-style="italic" font-size="7.00" fill="#999999">(empty)</text>
<path fill="none" stroke="#666666" stroke-width="2" d="M178.79,-217.25C178.79,-217.25 207.21,-217.25 207.21,-217.25 212.79,-217.25 218.38,-222.83 218.38,-228.42 218.38,-228.42 218.38,-239.58 218.38,-239.58 218.38,-245.17 212.79,-250.75 207.21,-250.75 207.21,-250.75 178.79,-250.75 178.79,-250.75 173.21,-250.75 167.62,-245.17 167.62,-239.58 167.62,-239.58 167.62,-228.42 167.62,-228.42 167.62,-222.83 173.21,-217.25 178.79,-217.25"/>
</g>
<!-- arvo_bitmask&#45;&gt;arvo_sparse -->
<g id="edge4" class="edge">
<title>arvo_bitmask&#45;&gt;arvo_sparse</title>
<path fill="none" stroke="#bbbbbb" stroke-width="0.8" d="M122.97,-143.56C137.32,-161.89 160.49,-191.49 176.22,-211.57"/>
<polygon fill="#bbbbbb" stroke="#bbbbbb" stroke-width="0.8" points="174.64,-212.39 179.1,-215.25 177.4,-210.23 174.64,-212.39"/>
</g>
<!-- arvo_bits -->
<g id="node2" class="node">
<title>arvo_bits</title>
<path fill="#f0f0f0" stroke="none" d="M102.54,-1.25C102.54,-1.25 117.46,-1.25 117.46,-1.25 123.04,-1.25 128.62,-6.83 128.62,-12.42 128.62,-12.42 128.62,-23.58 128.62,-23.58 128.62,-29.17 123.04,-34.75 117.46,-34.75 117.46,-34.75 102.54,-34.75 102.54,-34.75 96.96,-34.75 91.38,-29.17 91.38,-23.58 91.38,-23.58 91.38,-12.42 91.38,-12.42 91.38,-6.83 96.96,-1.25 102.54,-1.25"/>
<polygon fill="#666666" stroke="none" points="92.38,-16.5 92.38,-33.75 127.62,-33.75 127.62,-16.5 92.38,-16.5"/>
<text xml:space="preserve" text-anchor="start" x="95.38" y="-22.25" font-family="Helvetica,sans-Serif" font-weight="bold" font-size="10.00" fill="white"> &#160;bits &#160;</text>
<text xml:space="preserve" text-anchor="start" x="98" y="-7.85" font-family="Helvetica,sans-Serif" font-style="italic" font-size="7.00" fill="#999999">(empty)</text>
<path fill="none" stroke="#666666" stroke-width="2" d="M102.54,-1.25C102.54,-1.25 117.46,-1.25 117.46,-1.25 123.04,-1.25 128.62,-6.83 128.62,-12.42 128.62,-12.42 128.62,-23.58 128.62,-23.58 128.62,-29.17 123.04,-34.75 117.46,-34.75 117.46,-34.75 102.54,-34.75 102.54,-34.75 96.96,-34.75 91.38,-29.17 91.38,-23.58 91.38,-23.58 91.38,-12.42 91.38,-12.42 91.38,-6.83 96.96,-1.25 102.54,-1.25"/>
</g>
<!-- arvo_bits&#45;&gt;arvo_bitmask -->
<g id="edge1" class="edge">
<title>arvo_bits&#45;&gt;arvo_bitmask</title>
<path fill="none" stroke="#bbbbbb" stroke-width="0.8" d="M110,-35.56C110,-53.43 110,-81.99 110,-102.03"/>
<polygon fill="#bbbbbb" stroke="#bbbbbb" stroke-width="0.8" points="108.25,-101.99 110,-106.99 111.75,-101.99 108.25,-101.99"/>
</g>
<!-- arvo_spectral -->
<g id="node6" class="node">
<title>arvo_spectral</title>
<path fill="#f0f0f0" stroke="none" d="M175.79,-325.25C175.79,-325.25 210.21,-325.25 210.21,-325.25 215.79,-325.25 221.38,-330.83 221.38,-336.42 221.38,-336.42 221.38,-347.58 221.38,-347.58 221.38,-353.17 215.79,-358.75 210.21,-358.75 210.21,-358.75 175.79,-358.75 175.79,-358.75 170.21,-358.75 164.62,-353.17 164.62,-347.58 164.62,-347.58 164.62,-336.42 164.62,-336.42 164.62,-330.83 170.21,-325.25 175.79,-325.25"/>
<polygon fill="#666666" stroke="none" points="165.62,-340.5 165.62,-357.75 220.38,-357.75 220.38,-340.5 165.62,-340.5"/>
<text xml:space="preserve" text-anchor="start" x="168.62" y="-346.25" font-family="Helvetica,sans-Serif" font-weight="bold" font-size="10.00" fill="white"> &#160;spectral &#160;</text>
<text xml:space="preserve" text-anchor="start" x="181" y="-331.85" font-family="Helvetica,sans-Serif" font-style="italic" font-size="7.00" fill="#999999">(empty)</text>
<path fill="none" stroke="#666666" stroke-width="2" d="M175.79,-325.25C175.79,-325.25 210.21,-325.25 210.21,-325.25 215.79,-325.25 221.38,-330.83 221.38,-336.42 221.38,-336.42 221.38,-347.58 221.38,-347.58 221.38,-353.17 215.79,-358.75 210.21,-358.75 210.21,-358.75 175.79,-358.75 175.79,-358.75 170.21,-358.75 164.62,-353.17 164.62,-347.58 164.62,-347.58 164.62,-336.42 164.62,-336.42 164.62,-330.83 170.21,-325.25 175.79,-325.25"/>
</g>
<!-- arvo_sparse&#45;&gt;arvo_spectral -->
<g id="edge5" class="edge">
<title>arvo_sparse&#45;&gt;arvo_spectral</title>
<path fill="none" stroke="#bbbbbb" stroke-width="0.8" d="M193,-251.56C193,-269.43 193,-297.99 193,-318.03"/>
<polygon fill="#bbbbbb" stroke="#bbbbbb" stroke-width="0.8" points="191.25,-317.99 193,-322.99 194.75,-317.99 191.25,-317.99"/>
</g>
</g>
</svg>
